<svg width="28" height="24" viewBox="0 0 28 24" fill="none" xmlns="http://www.w3.org/2000/svg">
<path d="M4.65 9.3C4.65 4.16563 8.81563 0 13.95 0C19.0844 0 23.25 4.16563 23.25 9.3C23.25 14.4344 19.0844 18.6 13.95 18.6C8.81563 18.6 4.65 14.4344 4.65 9.3ZM13.175 4.84375V5.0375C11.78 5.05203 10.6562 6.18547 10.6562 7.58047C10.6562 8.82531 11.5523 9.88609 12.7827 10.0895L14.8025 10.4286C15.0931 10.477 15.3062 10.7289 15.3062 11.0244C15.3062 11.3586 15.035 11.6298 14.7008 11.6298L12.0125 11.625C11.4797 11.625 11.0437 12.0609 11.0437 12.5938C11.0437 13.1266 11.4797 13.5625 12.0125 13.5625H13.175V13.7562C13.175 14.2891 13.6109 14.725 14.1437 14.725C14.6766 14.725 15.1125 14.2891 15.1125 13.7562V13.5286C16.3234 13.33 17.2437 12.2837 17.2437 11.0195C17.2437 9.77469 16.3477 8.71391 15.1173 8.51047L13.0975 8.17141C12.8069 8.12297 12.5938 7.87109 12.5938 7.57562C12.5938 7.24141 12.865 6.97016 13.1992 6.97016H15.5C16.0328 6.97016 16.4688 6.53422 16.4688 6.00141C16.4688 5.46859 16.0328 5.03266 15.5 5.03266H15.1125V4.83891C15.1125 4.30609 14.6766 3.87016 14.1437 3.87016C13.6109 3.87016 13.175 4.30609 13.175 4.83891V4.84375ZM2.325 15.1125V20.15C2.325 20.5763 2.67375 20.925 3.1 20.925H24.8C25.2262 20.925 25.575 20.5763 25.575 20.15V15.1125C25.575 14.4683 26.0933 13.95 26.7375 13.95C27.3817 13.95 27.9 14.4683 27.9 15.1125V20.15C27.9 21.8598 26.5098 23.25 24.8 23.25H3.1C1.39016 23.25 0 21.8598 0 20.15V15.1125C0 14.4683 0.518281 13.95 1.1625 13.95C1.80672 13.95 2.325 14.4683 2.325 15.1125Z" fill="#424242"/>
</svg>
