<svg width="21" height="23" viewBox="0 0 21 23" fill="none" xmlns="http://www.w3.org/2000/svg">
<path d="M12 1.53333C12 0.685208 11.3297 0 10.5 0C9.67031 0 9 0.685208 9 1.53333V11.6294L7.05938 9.64562C6.47344 9.04667 5.52188 9.04667 4.93594 9.64562C4.35 10.2446 4.35 11.2173 4.93594 11.8162L9.43594 16.4163C10.0219 17.0152 10.9734 17.0152 11.5594 16.4163L16.0594 11.8162C16.6453 11.2173 16.6453 10.2446 16.0594 9.64562C15.4734 9.04667 14.5219 9.04667 13.9359 9.64562L12 11.6294V1.53333ZM3 15.3333C1.34531 15.3333 0 16.7085 0 18.4V19.9333C0 21.6248 1.34531 23 3 23H18C19.6547 23 21 21.6248 21 19.9333V18.4C21 16.7085 19.6547 15.3333 18 15.3333H15.8016L13.1484 18.0454C11.6859 19.5404 9.30937 19.5404 7.84687 18.0454L5.19844 15.3333H3ZM17.25 18.0167C17.8734 18.0167 18.375 18.5294 18.375 19.1667C18.375 19.804 17.8734 20.3167 17.25 20.3167C16.6266 20.3167 16.125 19.804 16.125 19.1667C16.125 18.5294 16.6266 18.0167 17.25 18.0167Z" fill="#424242"/>
</svg>
