<svg width="23" height="23" viewBox="0 0 23 23" fill="none" xmlns="http://www.w3.org/2000/svg">
<path d="M11.5 23C17.852 23 23 17.852 23 11.5C23 5.14805 17.852 0 11.5 0C5.14805 0 0 5.14805 0 11.5C0 17.852 5.14805 23 11.5 23ZM10.0625 7.1875C10.0625 6.39238 10.7049 5.75 11.5 5.75C12.2951 5.75 12.9375 6.39238 12.9375 7.1875C12.9375 7.98262 12.2951 8.625 11.5 8.625C10.7049 8.625 10.0625 7.98262 10.0625 7.1875ZM9.70312 10.0625H11.8594C12.4568 10.0625 12.9375 10.5432 12.9375 11.1406V15.0938H13.2969C13.8943 15.0938 14.375 15.5744 14.375 16.1719C14.375 16.7693 13.8943 17.25 13.2969 17.25H9.70312C9.10566 17.25 8.625 16.7693 8.625 16.1719C8.625 15.5744 9.10566 15.0938 9.70312 15.0938H10.7812V12.2188H9.70312C9.10566 12.2188 8.625 11.7381 8.625 11.1406C8.625 10.5432 9.10566 10.0625 9.70312 10.0625Z" fill="#424242"/>
</svg>
