<svg width="35" height="23" viewBox="0 0 35 23" fill="none" xmlns="http://www.w3.org/2000/svg">
<path d="M35 0.0946903L34.9836 0.774234C33.4471 0.818794 32.523 1.6543 31.9325 3.01896C30.5655 6.23843 26.2842 16.387 23.4409 22.9931H22.6972L18.219 12.2374C16.442 15.7799 14.4845 19.4784 12.7949 22.9931C12.7785 23.0098 11.9747 22.9931 11.9747 22.9764C9.41025 16.866 6.72004 10.8003 4.15013 4.67325C3.52679 3.18606 1.44899 0.774234 0.0164037 0.790944C0.0164037 0.618273 0 0.233941 0 0H8.85252V0.774234C7.80269 0.835504 5.96547 1.51505 6.48492 2.67918C7.68239 5.44749 12.1497 16.064 13.3526 18.7543C14.1728 17.1 16.513 12.6718 17.4699 10.8003C16.7099 9.22397 14.2657 3.34202 13.4893 1.88824C12.9589 0.896774 11.5154 0.807654 10.4382 0.790944V0.0167103L18.23 0.0334201V0.763094C17.1692 0.796514 16.1467 1.19756 16.6224 2.21687C17.6558 4.44488 18.2956 6.01006 19.2525 8.04869C19.5587 7.44713 21.1498 4.18309 21.8825 2.4341C22.3692 1.28668 21.6693 0.841075 19.7719 0.796514C19.7883 0.595993 19.7719 0.222801 19.7883 0.03899C22.2161 0.0222799 25.8631 0.02228 26.5193 0.00556994V0.763094C25.289 0.807654 24.015 1.47606 23.3424 2.52879L20.1055 9.36879C20.4554 10.2656 23.5666 17.3228 23.8892 18.097L30.5819 2.35612C30.1117 1.06945 28.5916 0.790944 28.0011 0.779804V0.00556994L34.9891 0.0668402L35 0.0946903Z" fill="#424242"/>
</svg>
