<svg width="27" height="23" viewBox="0 0 27 23" fill="none" xmlns="http://www.w3.org/2000/svg">
<path d="M4.01351 5.47619C4.01351 2.4506 6.46267 0 9.48649 0C12.5103 0 14.9595 2.4506 14.9595 5.47619C14.9595 8.50179 12.5103 10.9524 9.48649 10.9524C6.46267 10.9524 4.01351 8.50179 4.01351 5.47619ZM0 21.6446C0 17.1496 3.63953 13.5079 8.13193 13.5079H10.841C15.3334 13.5079 18.973 17.1496 18.973 21.6446C18.973 22.3931 18.3664 23 17.6184 23H1.35456C0.606588 23 0 22.3931 0 21.6446ZM22.6216 4.01587C23.2282 4.01587 23.7162 4.50417 23.7162 5.11111V7.30159H25.9054C26.512 7.30159 27 7.78988 27 8.39683C27 9.00377 26.512 9.49206 25.9054 9.49206H23.7162V11.6825C23.7162 12.2895 23.2282 12.7778 22.6216 12.7778C22.015 12.7778 21.527 12.2895 21.527 11.6825V9.49206H19.3378C18.7312 9.49206 18.2432 9.00377 18.2432 8.39683C18.2432 7.78988 18.7312 7.30159 19.3378 7.30159H21.527V5.11111C21.527 4.50417 22.015 4.01587 22.6216 4.01587Z" fill="#424242"/>
</svg>
