<svg width="23" height="23" viewBox="0 0 23 23" fill="none" xmlns="http://www.w3.org/2000/svg">
<path d="M12.4772 0.384119C11.9246 -0.12804 11.0709 -0.12804 10.5228 0.384119L0.45852 9.72878C0.0271946 10.1331 -0.116581 10.7576 0.0990822 11.3057C0.314745 11.8538 0.840423 12.2177 1.43349 12.2177H2.15237V20.1247C2.15237 21.7106 3.44185 23 5.02787 23H17.9676C19.5537 23 20.8431 21.7106 20.8431 20.1247V12.2177H21.562C22.1551 12.2177 22.6853 11.8538 22.9009 11.3057C23.1166 10.7576 22.9728 10.1286 22.5415 9.72878L12.4772 0.384119ZM10.7789 14.3742H12.2166C13.4073 14.3742 14.3733 15.3401 14.3733 16.5306V20.8435H8.62225V16.5306C8.62225 15.3401 9.58824 14.3742 10.7789 14.3742Z" fill="#424242"/>
</svg>
