<svg width="27" height="23" viewBox="0 0 27 23" fill="none" xmlns="http://www.w3.org/2000/svg">
<path d="M0 1.9C0 0.849062 0.849062 0 1.9 0H24.7C25.7509 0 26.6 0.849062 26.6 1.9C26.6 2.95094 25.7509 3.8 24.7 3.8H1.9C0.849062 3.8 0 2.95094 0 1.9ZM0 11.4C0 10.3491 0.849062 9.5 1.9 9.5H24.7C25.7509 9.5 26.6 10.3491 26.6 11.4C26.6 12.4509 25.7509 13.3 24.7 13.3H1.9C0.849062 13.3 0 12.4509 0 11.4ZM26.6 20.9C26.6 21.9509 25.7509 22.8 24.7 22.8H1.9C0.849062 22.8 0 21.9509 0 20.9C0 19.8491 0.849062 19 1.9 19H24.7C25.7509 19 26.6 19.8491 26.6 20.9Z" fill="#424242"/>
</svg>
